<svg height="480pt" viewBox="0 -55 480 480" width="480pt" xmlns="http://www.w3.org/2000/svg"><path d="m240 9.007812-232 120v232h464v-232zm0 0" fill="#cc7400"/><path d="m48 41.007812h384v320h-384zm0 0" fill="#f1f2f2"/><path d="m48 155.222656v.023438-.023438l-40-26.214844v232l186.855469-109.535156zm0 0" fill="#ffa733"/><path d="m432 155.246094v-.023438l-146.855469 96.25 186.855469 109.535156v-232l-40 26.214844zm0 0" fill="#ffa733"/><path d="m285.121094 251.488281.023437-.015625-45.144531-26.464844-45.144531 26.464844.023437.015625-.023437-.015625-186.855469 109.535156h464l-186.855469-109.535156zm0 0" fill="#ffb655"/><g fill="#78b9eb"><path d="m296 257.832031v-13.472656l-10.855469 7.113281zm0 0"/><path d="m432.808594 154.695312 1.75-1.6875-2.558594-2.464843v4.679687zm0 0"/><path d="m376.535156 191.574219-21.335937 13.984375c8.09375-2.957032 15.394531-7.742188 21.335937-13.984375zm0 0"/></g><path d="m296 185.007812v136l40-24 40 24v-136zm0 0" fill="#ea348b"/><path d="m409.679688 176.929688 6.082031 34-34.242188 4.71875-15.039062 31.121093-30.480469-16.320312-30.480469 16.320312-15.039062-31.121093-34.242188-4.71875 6.082031-34-24.878906-23.921876 24.878906-23.917968-6.082031-34 34.242188-4.722656 15.039062-31.121094 30.480469 16.320312 30.480469-16.320312 15.039062 31.121094 34.242188 4.722656-6.082031 34 24.878906 23.917968zm0 0" fill="#ffda44"/><path d="m392 153.007812c0 30.929688-25.070312 56-56 56s-56-25.070312-56-56c0-30.929687 25.070312-56 56-56s56 25.070313 56 56zm0 0" fill="#ff5023"/><path d="m440 103.40625v-70.398438h-136.222656l-63.777344-33.007812-63.777344 33.007812h-136.222656v70.398438l-40 20.722656v244.878906h480v-244.863281zm-260.3125 147.683594-163.6875 95.957031v-203.199219zm60.3125-16.808594 48 28.109375v72.753906l48-28.800781 48 28.800781v-16.417969l58.511719 34.28125h-405.046875zm8.984375-81.273438 21.96875-21.144531-5.351563-30.015625 30.222657-4.160156 13.28125-27.457031 26.894531 14.417969 26.894531-14.402344 13.28125 27.449218 30.222657 4.175782-5.351563 30.015625 21.96875 21.121093-21.96875 21.144532 5.351563 30.054687-30.222657 4.160157-13.28125 27.457031-26.894531-14.457031-26.894531 14.402343-13.28125-27.449219-30.222657-4.160156 5.351563-30.015625zm54.398437-104h65.296876l-32.679688 17.488282zm114.945313 77.257813 5.703125-32v37.445313zm-114.328125 130.398437 32-17.144531 32 17.144531v50.207032l-32-19.199219-32 19.199219zm80 43.542969v-71.277343l2.847656-5.882813 38.222656-5.269531-6.773437-37.984375 19.4375-18.714844 26.265625-17.253906v203.199219zm72.175781-170.398437-16.175781 10.632812v-19zm-32.175781-41.671875-37.152344-5.128907-16.449218-34h53.601562zm-184-70.121094 28.976562 14.992187h-57.953124zm61.601562 30.992187-16.457031 33.992188-38.222656 5.273438 6.773437 37.984374-27.792968 26.75 27.800781 26.746094-6.773437 37.980469 38.222656 5.273437 2.847656 5.886719v14.953125l-48-28.113281-44.910156 26.328125-139.089844-91.160156v-101.894532zm-261.601562 91.40625-16.167969-10.605468 16.167969-8.367188zm0 0" fill="#231f20"/><path d="m336 217.007812c7.65625-.015624 15.242188-1.417968 22.398438-4.136718l.328124-.070313c30.835938-11.785156 47.597657-45.136719 38.664063-76.914062-8.933594-31.777344-40.621094-51.5-73.078125-45.492188-32.457031 6.011719-54.984375 35.773438-51.949219 68.640625 3.035157 32.871094 30.628907 58.007813 63.636719 57.972656zm0-112c26.507812 0 48 21.492188 48 48 0 26.511719-21.492188 48-48 48s-48-21.488281-48-48c.027344-26.5 21.5-47.972656 48-48zm0 0" fill="#231f20"/><path d="m373.65625 142.664062-11.3125-11.3125-34.34375 34.34375-18.34375-18.34375-11.3125 11.3125 29.65625 29.65625zm0 0" fill="#231f20"/></svg>