<?xml version="1.0" encoding="iso-8859-1"?>
<!-- Generator: Adobe Illustrator 19.0.0, SVG Export Plug-In . SVG Version: 6.00 Build 0)  -->
<svg version="1.1" id="Capa_1" xmlns="http://www.w3.org/2000/svg" xmlns:xlink="http://www.w3.org/1999/xlink" x="0px" y="0px"
	 viewBox="0 0 499.588 499.588" style="enable-background:new 0 0 499.588 499.588;" xml:space="preserve">
<polygon style="fill:#FFFFFF;" points="50.424,267.636 249.794,318.061 449.164,267.636 449.164,267.636 249.794,235.83 "/>
<path style="fill:#193651;" d="M249.794,325.818c-0.776,0-1.552,0-1.552,0l-200.145-51.2c-3.879-0.776-6.206-3.879-6.206-7.758
	s3.103-6.982,6.206-6.982l199.37-31.806c0.776,0,1.552,0,2.327,0l199.37,31.806c3.879,0.776,6.206,3.879,6.206,6.982
	c0,3.879-2.327,6.982-6.206,7.758l-199.37,50.424C251.345,325.818,250.57,325.818,249.794,325.818z M88.436,269.188l161.358,41.115
	l161.358-41.115l-161.358-25.6L88.436,269.188z"/>
<path style="fill:#FFFFFF;" d="M198.594,261.43c6.206,3.103,10.085,10.085,10.085,17.067v44.218h82.23v-44.218
	c0-6.982,3.879-13.188,10.085-17.067c32.582-17.842,55.079-52.751,55.079-93.091c0-62.836-54.303-113.261-118.691-105.503
	c-49.648,5.43-89.212,45.77-93.867,95.418C139.636,202.473,162.909,241.261,198.594,261.43z"/>
<path style="fill:#193651;" d="M290.909,330.473h-82.23c-4.655,0-7.758-3.103-7.758-7.758v-44.218c0-3.879-2.327-7.758-6.206-10.085
	c-39.564-21.721-62.836-65.939-58.182-110.933c4.655-53.527,47.321-96.97,100.848-102.4c4.655-0.776,8.533-0.776,13.188-0.776
	c62.836,0,114.036,51.2,114.036,114.036c0,41.891-22.497,79.903-58.958,100.073c-3.879,2.327-6.206,6.206-6.206,10.085v44.218
	C298.667,326.594,295.564,330.473,290.909,330.473z M216.436,314.958h66.715v-36.461c0-10.085,5.43-18.618,13.964-24.048
	c31.806-17.067,51.2-50.424,51.2-86.109c0-54.303-44.218-98.521-98.521-98.521c-3.879,0-7.758,0-11.636,0.776
	c-45.77,5.43-83.006,42.667-86.885,88.436c-3.879,39.564,16.291,76.8,50.424,96.194c8.533,4.655,13.964,13.964,13.964,24.048v35.685
	H216.436z"/>
<polygon style="fill:#FFFFFF;" points="249.794,491.83 50.424,441.406 50.424,267.636 249.794,318.061 "/>
<path style="fill:#193651;" d="M249.794,499.588c-0.776,0-1.552,0-1.552,0L48.097,449.164c-3.103-0.776-6.206-3.879-6.206-7.758
	v-173.77c0-2.327,0.776-4.655,3.103-6.206c1.552-1.552,4.655-2.327,6.982-1.552l199.37,50.424c3.103,0.776,6.206,3.879,6.206,7.758
	v173.77c0,2.327-0.776,4.655-3.103,6.206C252.897,499.588,251.345,499.588,249.794,499.588z M58.182,435.2l183.855,47.321V324.267
	L58.182,277.721C58.182,277.721,58.182,435.2,58.182,435.2z"/>
<polygon style="fill:#F16051;" points="81.455,417.358 81.455,307.2 218.764,342.109 218.764,452.267 "/>
<polygon style="fill:#FFFFFF;" points="249.794,491.83 449.164,441.406 449.164,267.636 249.794,318.061 "/>
<path style="fill:#193651;" d="M249.794,499.588c-1.552,0-3.103-0.776-4.655-1.551c-1.552-1.551-3.103-3.879-3.103-6.206v-173.77
	c0-3.879,2.327-6.982,6.206-7.758l199.37-50.424c2.327-0.776,4.655,0,6.982,1.552c1.552,1.552,3.103,3.879,3.103,6.206v173.77
	c0,3.879-2.327,6.982-6.206,7.758l-199.37,50.424C251.345,499.588,250.57,499.588,249.794,499.588z M257.551,324.267v158.255
	l183.855-46.545v-159.03L257.551,324.267z"/>
<polygon style="fill:#F16051;" points="280.824,342.109 418.133,307.2 418.133,417.358 280.824,452.267 "/>
<polygon style="fill:#E1E6E9;" points="290.909,368.485 490.279,318.061 449.164,267.636 249.794,318.061 "/>
<path style="fill:#193651;" d="M290.909,376.242c-2.327,0-4.655-0.776-6.206-3.103l-41.115-50.424
	c-1.552-2.327-2.327-4.655-1.552-6.982c0.776-2.327,3.103-4.655,5.43-5.43l199.37-50.424c3.103-0.776,6.206,0,7.758,2.327
	l41.115,50.424c1.552,2.327,2.327,4.655,1.552,6.982c-0.776,2.327-3.103,4.655-5.43,5.43l-199.37,50.424
	C292.461,376.242,291.685,376.242,290.909,376.242z M263.758,322.715l30.255,37.236l183.079-46.545l-30.255-37.236L263.758,322.715z
	"/>
<polygon style="fill:#E1E6E9;" points="208.679,368.485 9.309,318.061 50.424,267.636 249.794,318.061 "/>
<path style="fill:#193651;" d="M208.679,376.242c-0.776,0-1.552,0-1.552,0L7.758,325.818c-2.327-0.776-4.655-2.327-5.43-5.43
	c-0.776-2.327,0-5.43,1.552-6.982l41.115-50.424c1.552-2.327,4.655-3.103,7.758-2.327l199.37,50.424
	c2.327,0.776,4.655,2.327,5.43,5.43c0.776,2.327,0,5.43-1.552,6.982l-41.115,50.424
	C213.333,375.467,211.006,376.242,208.679,376.242z M23.273,313.406l183.079,46.545l30.255-37.236L53.527,276.17L23.273,313.406z"/>
<circle style="fill:#FDBF5E;" cx="249.794" cy="169.891" r="82.23"/>
<g>
	<path style="fill:#193651;" d="M412.703,177.648h-17.842c-4.655,0-7.758-3.103-7.758-7.758c0-4.655,3.103-7.758,7.758-7.758h17.842
		c4.655,0,7.758,3.103,7.758,7.758S416.582,177.648,412.703,177.648z"/>
	<path style="fill:#193651;" d="M104.727,177.648H86.885c-4.655,0-7.758-3.103-7.758-7.758c0-4.655,3.103-7.758,7.758-7.758h17.842
		c4.655,0,7.758,3.103,7.758,7.758S108.606,177.648,104.727,177.648z"/>
</g>
<path style="fill:#193651;" d="M377.018,117.915c-1.552-3.879,0-8.533,3.879-10.085l16.291-6.982c3.879-1.552,8.533,0,10.085,3.879
	c1.552,3.879,0,8.533-3.879,10.085l-16.291,6.982C383.224,123.345,378.57,121.794,377.018,117.915z"/>
<path style="fill:#193651;" d="M346.764,72.921c-3.103-3.103-3.103-7.758,0-10.861l12.412-12.412c3.103-3.103,7.758-3.103,10.861,0
	c3.103,3.103,3.103,7.758,0,10.861L358.4,72.921C355.297,76.024,349.867,76.024,346.764,72.921z"/>
<g>
	<path style="fill:#193651;" d="M302.545,43.442c-3.879-1.552-6.206-6.206-3.879-10.085l6.206-16.291
		c1.552-3.879,6.206-6.206,10.085-3.879c3.879,1.552,6.206,6.206,3.879,10.085l-6.982,16.291
		C311.079,42.667,306.424,44.994,302.545,43.442z"/>
	<path style="fill:#193651;" d="M249.794,32.582c-4.655,0-7.758-3.103-7.758-7.758V7.758c0-4.655,3.103-7.758,7.758-7.758
		c4.655,0,7.758,3.103,7.758,7.758v17.067C257.551,29.479,254.448,32.582,249.794,32.582z"/>
</g>
<path style="fill:#193651;" d="M186.958,38.788l-6.982-16.291c-1.552-3.879,0-8.533,3.879-10.085c3.879-1.552,8.533,0,10.085,3.879
	l6.982,16.291c1.552,3.879,0,8.533-3.879,10.085C193.164,44.994,188.509,42.667,186.958,38.788z"/>
<path style="fill:#193651;" d="M141.188,72.921l-12.412-12.412c-3.103-3.103-3.103-7.758,0-10.861c3.103-3.103,7.758-3.103,10.861,0
	l12.412,12.412c3.103,3.103,3.103,7.758,0,10.861C149.721,76.024,144.291,76.024,141.188,72.921z"/>
<path style="fill:#193651;" d="M112.485,121.794l-16.291-6.982c-3.879-1.552-6.206-6.206-3.879-10.085
	c1.552-3.879,6.206-6.206,10.085-3.879l16.291,6.982c3.879,1.552,6.206,6.206,3.879,10.085
	C121.018,121.794,116.364,123.345,112.485,121.794z"/>
<g>
	<path style="fill:#FFFFFF;" d="M249.794,114.036c-6.982,0-12.412,6.206-12.412,13.188l5.43,68.267c0,3.879,3.103,6.206,6.982,6.206
		c3.879,0,6.982-3.103,6.982-6.206l5.43-68.267C262.206,120.242,256.776,114.036,249.794,114.036z"/>
	<circle style="fill:#FFFFFF;" cx="249.794" cy="218.764" r="7.758"/>
</g>
<g>
</g>
<g>
</g>
<g>
</g>
<g>
</g>
<g>
</g>
<g>
</g>
<g>
</g>
<g>
</g>
<g>
</g>
<g>
</g>
<g>
</g>
<g>
</g>
<g>
</g>
<g>
</g>
<g>
</g>
</svg>
