<svg height="480pt" viewBox="0 0 480 480.03512" width="480pt" xmlns="http://www.w3.org/2000/svg"><path d="m440.015625 168.035156h-145.359375l-22.640625 32h8c8.839844 0 16 7.164063 16 16 0 8.835938-7.160156 16-16 16h-80c-8.835937 0-16-7.164062-16-16 0-8.835937 7.164063-16 16-16h16l22.640625-32h-198.640625c-17.671875 0-32 14.328125-32 32v240c0 17.671875 14.328125 32 32 32h400c17.675781 0 32-14.328125 32-32v-240c0-17.671875-14.324219-32-32-32zm0 0" fill="#fcbc04"/><path d="m216.015625 200.355469 22.640625-32h-16l-22.640625 32zm0 0" fill="#e59730"/><path d="m56.015625 272.355469h128c4.421875 0 8 3.582031 8 8v144c0 4.417969-3.578125 8-8 8h-128c-4.417969 0-8-3.582031-8-8v-144c0-4.417969 3.582031-8 8-8zm0 0" fill="#57b7eb"/><path d="m144.015625 328.355469c0 13.253906-10.742187 24-24 24-13.253906 0-24-10.746094-24-24 0-13.253907 10.746094-24 24-24 13.257813 0 24 10.746093 24 24zm0 0" fill="#f9e109"/><path d="m112.015625 352.035156h16c17.675781 0 32 14.328125 32 32v16h-80v-16c0-17.671875 14.328125-32 32-32zm0 0" fill="#f9e109"/><path d="m184.015625 272.035156h-128c-4.417969 0-8 3.582032-8 8h128c4.421875 0 8 3.582032 8 8v144c4.421875 0 8-3.582031 8-8v-144c0-4.417968-3.578125-8-8-8zm0 0" fill="#4891d3"/><path d="m264.015625 272.355469h112c4.421875 0 8 3.582031 8 8v16c0 4.417969-3.578125 8-8 8h-112c-4.417969 0-8-3.582031-8-8v-16c0-4.417969 3.582031-8 8-8zm0 0" fill="#57b7eb"/><path d="m344.015625 352.035156h-80c-4.417969 0-8-3.582031-8-8 0-4.417968 3.582031-8 8-8h80c4.421875 0 8 3.582032 8 8 0 4.417969-3.578125 8-8 8zm0 0" fill="#7ab92d"/><path d="m408.015625 392.035156h-112c-4.417969 0-8-3.582031-8-8 0-4.417968 3.582031-8 8-8h112c4.421875 0 8 3.582032 8 8 0 4.417969-3.578125 8-8 8zm0 0" fill="#57b7eb"/><path d="m320.015625 424.035156h-64c-4.417969 0-8-3.582031-8-8 0-4.417968 3.582031-8 8-8h64c4.421875 0 8 3.582032 8 8 0 4.417969-3.578125 8-8 8zm0 0" fill="#7ab92d"/><path d="m408.015625 424.035156h-48c-4.417969 0-8-3.582031-8-8 0-4.417968 3.582031-8 8-8h48c4.421875 0 8 3.582032 8 8 0 4.417969-3.578125 8-8 8zm0 0" fill="#7ab92d"/><path d="m408.015625 8.355469h-56l-136 192h56zm0 0" fill="#57b7eb"/><path d="m244.015625 160.835938-108-152.480469h-56l113.363281 160h45.277344zm0 0" fill="#57b7eb"/><path d="m238.015625 152.355469h-56l11.363281 16h45.277344l5.359375-7.519531zm0 0" fill="#4891d3"/><path d="m192.015625 420.035156v4c0 4.417969-3.578125 8-8 8h-128c-4.417969 0-8-3.582031-8-8v-144c0-4.417968 3.582031-8 8-8h3.441406c-2.265625-11.757812-3.414062-23.707031-3.441406-35.679687v-68.320313h-16c-17.671875 0-32 14.328125-32 32v240c0 17.671875 14.328125 32 32 32h400c17.675781 0 32-14.328125 32-32v-12h-224c-18.957031.101563-37.828125-2.59375-56-8zm0 0" fill="#e59730"/><path d="m48.015625 280.035156v144c0 4.417969 3.582031 8 8 8h128c4.421875 0 8-3.582031 8-8v-4c-15.402344-4.777344-30.132813-11.5-43.839844-20h-68.160156v-16c.039063-12.113281 6.914063-23.167968 17.761719-28.558594-19.351563-24.296874-32.5-52.933593-38.320313-83.441406h-3.441406c-4.417969 0-8 3.582032-8 8zm0 0" fill="#4891d3"/><path d="m97.777344 355.796875c-10.746094 5.335937-17.601563 16.238281-17.761719 28.238281v16h68.160156c-19.246093-11.695312-36.304687-26.667968-50.398437-44.238281zm0 0" fill="#fcbc04"/><path d="m440.015625 168.035156h-145.359375v.558594c100.070312 7.652344 177.359375 91.082031 177.359375 191.441406v-160c0-17.671875-14.324219-32-32-32zm0 0" fill="#f9e109"/><g fill="#39519d"><path d="m440.015625 160.035156h-104c-4.417969 0-8 3.582032-8 8 0 4.417969 3.582031 8 8 8h104c13.257813 0 24 10.746094 24 24v240c0 13.253906-10.742187 24-24 24h-400c-13.253906 0-24-10.746094-24-24v-240c0-13.253906 10.746094-24 24-24h160c4.421875 0 8-3.582031 8-8 0-4.417968-3.578125-8-8-8h-160c-22.089844 0-40 17.910156-40 40v240c0 22.089844 17.910156 40 40 40h400c22.09375 0 40-17.910156 40-40v-240c0-22.089844-17.90625-40-40-40zm0 0"/><path d="m160.015625 408.035156c4.421875 0 8-3.582031 8-8v-16c-.039063-15.519531-9.050781-29.613281-23.117187-36.160156 4.585937-5.597656 7.097656-12.605469 7.117187-19.839844 0-17.671875-14.324219-32-32-32-17.671875 0-32 14.328125-32 32 .023437 7.234375 2.535156 14.242188 7.121094 19.839844-14.066407 6.546875-23.078125 20.640625-23.121094 36.160156v16c0 4.417969 3.582031 8 8 8 4.421875 0 8-3.582031 8-8v-16c0-13.253906 10.746094-24 24-24h16c13.257813 0 24 10.746094 24 24v16c0 4.417969 3.582031 8 8 8zm-40-96c8.839844 0 16 7.164063 16 16 0 8.835938-7.160156 16-16 16-8.835937 0-16-7.164062-16-16 0-8.835937 7.164063-16 16-16zm0 0"/><path d="m192.015625 408.035156c4.421875 0 8-3.582031 8-8v-120c0-8.835937-7.160156-16-16-16h-128c-8.835937 0-16 7.164063-16 16v144c0 8.835938 7.164063 16 16 16h104c4.421875 0 8-3.582031 8-8 0-4.417968-3.578125-8-8-8h-104v-144h128v120c0 4.417969 3.582031 8 8 8zm0 0"/><path d="m296.015625 208.035156c-4.417969 0-8 3.582032-8 8 0 4.417969-3.578125 8-8 8h-80c-4.417969 0-8-3.582031-8-8 0-4.417968-3.578125-8-8-8-4.417969 0-8 3.582032-8 8 0 13.253906 10.746094 24 24 24h80c13.257813 0 24-10.746094 24-24 0-4.417968-3.578125-8-8-8zm0 0"/><path d="m376.015625 280.035156c4.421875 0 8-3.582031 8-8 0-4.417968-3.578125-8-8-8h-112c-8.835937 0-16 7.164063-16 16v16c0 8.835938 7.164063 16 16 16h112c4.421875 0 8-3.582031 8-8 0-4.417968-3.578125-8-8-8h-112v-16zm0 0"/><path d="m344.015625 352.035156c4.421875 0 8-3.582031 8-8 0-4.417968-3.578125-8-8-8h-80c-4.417969 0-8 3.582032-8 8 0 4.417969 3.582031 8 8 8zm0 0"/><path d="m408.015625 376.035156h-112c-4.417969 0-8 3.582032-8 8 0 4.417969 3.582031 8 8 8h112c4.421875 0 8-3.582031 8-8 0-4.417968-3.578125-8-8-8zm0 0"/><path d="m248.015625 416.035156c0 4.417969 3.582031 8 8 8h64c4.421875 0 8-3.582031 8-8 0-4.417968-3.578125-8-8-8h-64c-4.417969 0-8 3.582032-8 8zm0 0"/><path d="m408.015625 408.035156h-48c-4.417969 0-8 3.582032-8 8 0 4.417969 3.582031 8 8 8h48c4.421875 0 8-3.582031 8-8 0-4.417968-3.578125-8-8-8zm0 0"/><path d="m208.898438 204.035156c1.460937 2.535156 4.191406 4.070313 7.117187 4h56c2.605469.015625 5.050781-1.238281 6.5625-3.359375l136-192c2.5625-3.625 1.703125-8.636719-1.921875-11.199219-3.621094-2.5625-8.636719-1.703124-11.199219 1.917969l-133.597656 188.640625h-36.402344l127.121094-179.039062c2.5625-3.625 1.703125-8.636719-1.921875-11.199219-3.621094-2.5625-8.636719-1.703125-11.199219 1.917969l-136 192c-1.730469 2.449218-1.945312 5.660156-.558593 8.320312zm0 0"/><path d="m164.175781 140.996094c1.496094 2.097656 3.90625 3.347656 6.480469 3.359375 1.667969-.011719 3.289062-.542969 4.640625-1.519531 3.589844-2.546876 4.449219-7.515626 1.921875-11.121094l-90.640625-128c-2.5625-3.621094-7.578125-4.480469-11.199219-1.917969-3.625 2.5625-4.484375 7.574219-1.921875 11.199219zm0 0"/><path d="m220.175781 140.996094c1.496094 2.097656 3.90625 3.347656 6.480469 3.359375 1.667969-.011719 3.289062-.542969 4.640625-1.519531 3.589844-2.546876 4.449219-7.515626 1.921875-11.121094l-90.640625-128c-2.5625-3.621094-7.578125-4.480469-11.199219-1.917969-3.625 2.5625-4.484375 7.574219-1.921875 11.199219zm0 0"/></g></svg>