<svg height="512pt" viewBox="-33 0 512 512" width="512pt" xmlns="http://www.w3.org/2000/svg"><path d="m435.917969 76.539062v372.746094h-318.179688v-439.222656h251.707031zm0 0" fill="#ffd89e"/><path d="m328.242188 129.1875v372.746094h-318.179688v-439.222656h251.707031zm0 0" fill="#e8e7e9"/><path d="m446.519531 76.539062c0-2.671874-1.0625-5.230468-2.949219-7.117187l-66.472656-66.472656c-1.886718-1.886719-4.449218-2.949219-7.117187-2.949219h-251.703125c-5.558594 0-10.0625 4.503906-10.0625 10.0625v42.585938h-98.152344c-5.554688 0-10.0625 4.507812-10.0625 10.0625v439.226562c0 5.554688 4.507812 10.0625 10.0625 10.0625h318.179688c5.558593 0 10.0625-4.507812 10.0625-10.0625v-42.585938h98.152343c5.554688 0 10.0625-4.507812 10.0625-10.0625v-54.800781c0-12.921875-20.128906-12.941406-20.128906 0v44.734375h-88.085937v-132.292968h39.800781c12.921875 0 12.9375-20.128907 0-20.128907h-39.800781v-48.804687h39.800781c12.921875 0 12.941406-20.125 0-20.125h-39.800781v-48.804688h39.800781c12.921875 0 12.941406-20.128906 0-20.128906h-39.800781v-19.75c0-2.667969-1.058594-5.230469-2.945313-7.117188l-66.476563-66.472656c-1.886718-1.886718-4.445312-2.949218-7.113281-2.949218h-133.429687v-32.523438h237.472656l60.578125 60.582031v232.265625c0 12.921875 20.128906 12.941406 20.128906 0zm-128.339843 56.816407v358.519531h-298.054688v-419.097656h237.472656zm0 0"/><path d="m77.832031 223.589844h17.671875v18.273437c0 9.140625 17.671875 9.296875 17.671875 0v-18.273437h17.503907c9.273437 0 9.050781-16.84375 0-16.84375h-17.503907v-18.101563c0-9.371093-17.671875-9.207031-17.671875 0v18.101563h-17.671875c-8.824219 0-8.972656 16.84375 0 16.84375zm0 0"/><path d="m161.441406 251.738281c4.480469 2.5 16.324219 5.570313 18.488282-1.546875l6.15625-21.976562h35.378906l6.277344 21.964844c2.46875 9.203124 22.78125 3.007812 20.476562-6.277344l-31.871094-103.875c-2.734375-9.578125-24.515625-10.382813-27.578125-.71875l-31.90625 103.867187c-.90625 3.890625 1.226563 6.691407 4.578125 8.5625 4.480469 2.5-3.351562-1.871093 0 0zm43.550782-91.066406 14.367187 50.695313h-28.558594zm0 0"/><path d="m75.203125 372.703125h178.703125c12.921875 0 12.941406-20.125 0-20.125h-178.703125c-12.921875 0-12.941406 20.125 0 20.125zm0 0"/><path d="m75.203125 327.0625h52.453125c12.921875 0 12.9375-20.125 0-20.125h-52.453125c-12.921875 0-12.941406 20.125 0 20.125zm0 0"/><path d="m75.203125 415.488281h178.703125c12.921875 0 12.941406-20.125 0-20.125h-178.703125c-12.921875 0-12.941406 20.125 0 20.125zm0 0"/><path d="m75.203125 458.277344h178.703125c12.921875 0 12.941406-20.128906 0-20.128906h-178.703125c-12.921875 0-12.941406 20.128906 0 20.128906zm0 0"/><path d="m436.453125 343.496094c-5.46875 0-10.0625 4.597656-10.0625 10.0625 0 5.472656 4.597656 10.066406 10.0625 10.066406 5.3125 0 9.808594-4.324219 10.042969-9.625.25-5.628906-4.394532-10.503906-10.042969-10.503906zm0 0"/><path d="m161.027344 309.882812c-3.867188 3.867188-3.871094 10.363282 0 14.230469 3.871094 3.871094 10.367187 3.867188 14.238281 0 3.75-3.746093 3.867187-10.003906.296875-13.902343-3.804688-4.160157-10.542969-4.320313-14.535156-.328126-1.871094 1.875 1.871094-1.871093 0 0zm0 0"/></svg>