<?xml version="1.0" encoding="iso-8859-1"?>
<!-- Generator: Adobe Illustrator 21.0.0, SVG Export Plug-In . SVG Version: 6.00 Build 0)  -->
<svg version="1.1" id="Capa_1" xmlns="http://www.w3.org/2000/svg" xmlns:xlink="http://www.w3.org/1999/xlink" x="0px" y="0px"
	 viewBox="0 0 591.148 591.148" style="enable-background:new 0 0 591.148 591.148;" xml:space="preserve">
<g>
	<g>
		<g id="filled_outline_18_">
			<path style="fill:#DADDDF;" d="M261.107,285.722v-61.085c41.932-18.798,68.937-60.455,68.967-106.406H162.582V9.854
				c-59.312,27.104-85.421,97.155-58.317,156.466c11.793,25.823,32.503,46.523,58.317,58.317v61.085"/>
			<path style="fill:#C7CACC;" d="M251.254,118.231L151.055,218.43c3.724,2.286,7.577,4.355,11.527,6.207v61.085h98.524v-61.085
				c41.932-18.798,68.937-60.455,68.967-106.406C330.074,118.231,251.254,118.231,251.254,118.231z"/>
			<polygon style="fill:#F2A46F;" points="320.221,285.722 261.107,285.722 261.107,226.608 300.516,226.608 			"/>
			<path style="fill:#B6B8BA;" d="M261.107,9.854v108.377h68.967C330.084,71.777,303.186,29.52,261.107,9.854z"/>
			<rect x="320.221" y="285.722" style="fill:#4398D1;" width="187.196" height="197.049"/>
			<path style="fill:#FFB782;" d="M320.221,482.771H128.099c-13.606,0-24.631-11.025-24.631-24.631l0,0
				c0-13.606,11.025-24.631,24.631-24.631l0,0c-13.606,0-24.631-11.025-24.631-24.631l0,0c0-13.606,11.025-24.631,24.631-24.631l0,0
				c-13.606,0-24.631-11.025-24.631-24.631l0,0c0-13.606,11.025-24.631,24.631-24.631l0,0c-13.606,0-24.631-11.025-24.631-24.631
				l0,0c0-13.606,11.025-24.631,24.631-24.631h192.122V482.771z"/>
			<circle style="fill:#5EB3D1;" cx="379.336" cy="423.656" r="19.705"/>
			<path style="fill:#DADDDF;" d="M162.582,482.771v49.262c0,27.203,22.06,49.262,49.262,49.262s49.262-22.06,49.262-49.262v-49.262
				H162.582z M211.845,551.738c-10.887,0-19.705-8.818-19.705-19.705c0-10.887,8.818-19.705,19.705-19.705
				s19.705,8.818,19.705,19.705C231.549,542.92,222.722,551.738,211.845,551.738z"/>
			<rect x="201.992" y="226.608" style="fill:#B6B8BA;" width="19.705" height="59.115"/>
			<rect x="162.582" y="482.771" style="fill:#C7CACC;" width="98.524" height="19.705"/>
			<path d="M309.866,223.494c-1.34-4.02-5.113-6.739-9.35-6.739h-7.99c30.07-23.833,47.548-60.149,47.4-98.524
				c0.059-50.316-29.084-96.101-74.711-117.333c-4.946-2.266-10.798-0.099-13.064,4.847c-0.591,1.291-0.897,2.69-0.897,4.108v98.524
				h-78.819V9.854c0-5.439-4.414-9.852-9.852-9.852c-1.419,0-2.818,0.305-4.108,0.897c-64.248,29.39-92.504,105.283-63.125,169.531
				c11.862,25.941,32.06,47.173,57.381,60.317v45.124h-24.631c-19.045,0.01-34.474,15.458-34.464,34.503
				c0.01,9.261,3.734,18.128,10.355,24.611c-13.606,13.281-13.862,35.075-0.581,48.681c0.187,0.197,0.384,0.394,0.581,0.581
				c-13.606,13.281-13.862,35.075-0.581,48.681c0.187,0.197,0.384,0.394,0.581,0.581c-13.606,13.33-13.823,35.163-0.502,48.76
				c6.483,6.621,15.35,10.355,24.611,10.355h24.631v39.41c0,32.651,26.464,59.115,59.115,59.115s59.115-26.464,59.115-59.115v-39.41
				h236.458v-19.705H330.074V295.575h177.344V275.87H327.325L309.866,223.494z M306.556,275.87h-35.597v-39.41h22.454
				L306.556,275.87z M270.959,26.535c27.882,18.424,45.853,48.553,48.819,81.844h-48.819V26.535z M166.691,215.701
				c-54.356-24.799-78.307-88.967-53.509-143.323c8.552-18.739,22.266-34.641,39.548-45.853v91.706c0,5.439,4.414,9.852,9.852,9.852
				h157.196c-3.567,38.385-27.567,71.873-62.78,87.568c-3.507,1.606-5.754,5.123-5.744,8.985v51.233h-29.557v-49.262h-19.705v49.262
				h-29.557v-51.233c0.01-3.862-2.236-7.379-5.744-8.985V215.701z M113.32,458.14c0-8.158,6.621-14.779,14.779-14.779
				c5.439,0,9.852-4.414,9.852-9.852c0-5.439-4.414-9.852-9.852-9.852c-8.158,0-14.779-6.621-14.779-14.779
				s6.621-14.779,14.779-14.779c5.439,0,9.852-4.414,9.852-9.852c0-5.439-4.414-9.852-9.852-9.852
				c-8.158,0-14.779-6.621-14.779-14.779s6.621-14.779,14.779-14.779c5.439,0,9.852-4.414,9.852-9.852
				c0-5.439-4.414-9.852-9.852-9.852c-8.158,0-14.779-6.621-14.779-14.779s6.621-14.779,14.779-14.779h182.27v177.344h-182.27
				C119.931,472.919,113.32,466.308,113.32,458.14z M251.254,532.033c0,21.764-17.646,39.41-39.41,39.41s-39.41-17.646-39.41-39.41
				v-39.41h78.819V532.033z"/>
			<circle cx="211.845" cy="532.033" r="19.705"/>
			<rect x="172.435" y="156.636" width="78.819" height="19.705"/>
			<path d="M349.779,423.656c0,16.326,13.232,29.557,29.557,29.557s29.557-13.232,29.557-29.557s-13.232-29.557-29.557-29.557
				S349.779,407.331,349.779,423.656z M389.188,423.656c0,5.439-4.414,9.852-9.852,9.852c-5.439,0-9.852-4.414-9.852-9.852
				c0-5.439,4.414-9.852,9.852-9.852C384.774,413.804,389.188,418.218,389.188,423.656z"/>
		</g>
	</g>
</g>
<g>
</g>
<g>
</g>
<g>
</g>
<g>
</g>
<g>
</g>
<g>
</g>
<g>
</g>
<g>
</g>
<g>
</g>
<g>
</g>
<g>
</g>
<g>
</g>
<g>
</g>
<g>
</g>
<g>
</g>
</svg>
