<?xml version="1.0" encoding="iso-8859-1"?>
<!-- Generator: Adobe Illustrator 19.0.0, SVG Export Plug-In . SVG Version: 6.00 Build 0)  -->
<svg version="1.1" id="Layer_1" xmlns="http://www.w3.org/2000/svg" xmlns:xlink="http://www.w3.org/1999/xlink" x="0px" y="0px"
	 viewBox="0 0 511.999 511.999" style="enable-background:new 0 0 511.999 511.999;" xml:space="preserve">
<path style="fill:#F7B081;" d="M348.698,347.786l16.016-80.709c1.809-9.116,2.155-18.495,0.65-27.665
	c-2.76-16.816-10.635-29.234-29.491-29.234l0,0l-4.931,29.01c-1.931,11.363-4.603,22.596-8.212,33.541
	c-9,27.29-20.839,44.965-45.571,55.541c-12.894,5.514-22.457,9.913-22.457,9.913H214.57v66.793v69.276h40.132l18.212,14.743
	c12.259,9.925,27.554,15.34,43.328,15.34h49.459V347.786H348.698z"/>
<rect x="29.925" y="309.047" style="fill:#546F7A;" width="126.277" height="191.855"/>
<rect x="29.925" y="479.597" style="fill:#465A65;" width="126.277" height="21.301"/>
<rect x="156.206" y="324.663" style="fill:#EFE7E4;" width="58.366" height="160.614"/>
<rect x="156.206" y="462.859" style="fill:#D8D1D0;" width="58.366" height="22.422"/>
<path style="fill:#FFC89F;" d="M345.34,368.247v-4.212c0-9.752,7.906-17.658,17.658-17.658h78.256
	c9.752,0,17.658,7.906,17.658,17.658v4.212c0,9.752-7.906,17.658-17.658,17.658h-78.257
	C353.245,385.905,345.34,377.999,345.34,368.247z"/>
<path style="fill:#F7B081;" d="M439.148,369.088h-74.044c-7.904,0-14.705-4.651-17.866-11.356c-1.205,2.554-1.898,5.397-1.898,8.409
	l0,0c0,10.915,8.849,19.764,19.764,19.764h74.044c10.915,0,19.763-8.849,19.763-19.764l0,0c0-3.011-0.693-5.854-1.898-8.409
	C453.853,364.437,447.052,369.088,439.148,369.088z"/>
<path style="fill:#FFC89F;" d="M345.34,445.196L345.34,445.196c0-10.915,8.849-19.764,19.764-19.764h74.044
	c10.915,0,19.763,8.849,19.763,19.764l0,0c0,10.915-8.849,19.764-19.763,19.764h-74.044
	C354.188,464.961,345.34,456.111,345.34,445.196z"/>
<path style="fill:#F7B081;" d="M439.148,448.144h-74.044c-7.904,0-14.705-4.651-17.866-11.356c-1.205,2.554-1.898,5.397-1.898,8.409
	c0,10.915,8.849,19.764,19.764,19.764h74.044c10.915,0,19.763-8.849,19.763-19.764c0-3.012-0.693-5.854-1.898-8.409
	C453.853,443.493,447.052,448.144,439.148,448.144z"/>
<path style="fill:#FFC89F;" d="M345.34,484.724L345.34,484.724c0-10.916,8.849-19.764,19.764-19.764h53.662
	c10.916,0,19.764,8.849,19.764,19.764l0,0c0,10.915-8.849,19.764-19.764,19.764h-53.662
	C354.188,504.489,345.34,495.64,345.34,484.724z"/>
<path style="fill:#F7B081;" d="M418.766,487.671h-53.662c-7.904,0-14.705-4.651-17.866-11.356c-1.205,2.554-1.898,5.397-1.898,8.409
	c0,10.915,8.849,19.764,19.764,19.764h53.662c10.915,0,19.764-8.849,19.764-19.764c0-3.012-0.693-5.855-1.898-8.409
	C433.47,483.02,426.67,487.671,418.766,487.671z"/>
<path style="fill:#FFC89F;" d="M345.34,407.775v-4.213c0-9.752,7.906-17.658,17.658-17.658h87.391
	c9.752,0,17.658,7.906,17.658,17.658v4.212c0,9.752-7.906,17.658-17.658,17.658h-87.391
	C353.245,425.433,345.34,417.527,345.34,407.775z"/>
<path style="fill:#F7B081;" d="M448.283,408.615h-83.179c-7.904,0-14.705-4.651-17.866-11.356c-1.205,2.554-1.898,5.397-1.898,8.409
	l0,0c0,10.915,8.849,19.763,19.764,19.763h83.179c10.915,0,19.764-8.849,19.764-19.763l0,0c0-3.012-0.693-5.855-1.898-8.409
	C462.988,403.965,456.187,408.615,448.283,408.615z"/>
<path style="fill:#DD9A76;" d="M345.34,484.724c0-10.916,8.849-19.764,19.764-19.764c-10.915,0-19.764-8.849-19.764-19.764
	s8.849-19.764,19.764-19.764c-10.915,0-19.764-8.849-19.764-19.763s8.849-19.764,19.764-19.764
	c-10.915,0-19.764-8.849-19.764-19.764c0-10.916,8.849-19.764,19.764-19.764h-22.423c-10.915,0-19.763,8.849-19.763,19.764
	c0,10.915,8.849,19.764,19.763,19.764c-10.915,0-19.763,8.849-19.763,19.764c0,10.915,8.849,19.763,19.763,19.763
	c-10.915,0-19.763,8.849-19.763,19.764c0,10.915,8.849,19.764,19.763,19.764c-10.915,0-19.763,8.849-19.763,19.764
	c0,10.915,8.849,19.764,19.763,19.764h22.422C354.188,504.489,345.34,495.64,345.34,484.724z"/>
<path id="SVGCleanerId_0" style="fill:#F7CB4F;" d="M105.609,66.247l15.502,31.412c0.953,1.93,2.794,3.267,4.923,3.577l34.665,5.037
	c5.363,0.779,7.504,7.37,3.624,11.153l-25.084,24.45c-1.542,1.502-2.245,3.667-1.88,5.788l5.922,34.525
	c0.916,5.342-4.691,9.414-9.488,6.893l-31.005-16.301c-1.905-1.002-4.181-1.002-6.086,0l-31.005,16.301
	c-4.797,2.522-10.403-1.552-9.488-6.893l5.922-34.525c0.364-2.121-0.34-4.285-1.881-5.788l-25.084-24.45
	c-3.881-3.783-1.739-10.374,3.624-11.153l34.665-5.037c2.129-0.31,3.971-1.647,4.923-3.577L93.88,66.247
	C96.28,61.387,103.211,61.387,105.609,66.247z"/>
<g>
	<path id="SVGCleanerId_0_1_" style="fill:#F7CB4F;" d="M105.609,66.247l15.502,31.412c0.953,1.93,2.794,3.267,4.923,3.577
		l34.665,5.037c5.363,0.779,7.504,7.37,3.624,11.153l-25.084,24.45c-1.542,1.502-2.245,3.667-1.88,5.788l5.922,34.525
		c0.916,5.342-4.691,9.414-9.488,6.893l-31.005-16.301c-1.905-1.002-4.181-1.002-6.086,0l-31.005,16.301
		c-4.797,2.522-10.403-1.552-9.488-6.893l5.922-34.525c0.364-2.121-0.34-4.285-1.881-5.788l-25.084-24.45
		c-3.881-3.783-1.739-10.374,3.624-11.153l34.665-5.037c2.129-0.31,3.971-1.647,4.923-3.577L93.88,66.247
		C96.28,61.387,103.211,61.387,105.609,66.247z"/>
</g>
<path style="fill:#FBAB00;" d="M164.324,117.426c3.88-3.783,1.739-10.374-3.624-11.153l-6.032-0.876l-32.27,31.456
	c-1.983,1.934-2.889,4.72-2.421,7.45l7.073,41.235l6.744,3.546c4.797,2.522,10.403-1.552,9.488-6.893l-5.922-34.525
	c-0.364-2.121,0.34-4.285,1.88-5.788L164.324,117.426z"/>
<path id="SVGCleanerId_1" style="fill:#F7CB4F;" d="M263.637,11.157l15.502,31.412c0.953,1.93,2.794,3.267,4.923,3.577l34.665,5.037
	c5.363,0.779,7.504,7.37,3.624,11.153l-25.084,24.451c-1.542,1.502-2.245,3.666-1.88,5.787l5.922,34.525
	c0.917,5.342-4.691,9.414-9.488,6.893l-31.005-16.301c-1.905-1.002-4.181-1.002-6.085,0l-31.005,16.301
	c-4.797,2.522-10.403-1.552-9.488-6.893l5.922-34.525c0.364-2.121-0.34-4.285-1.881-5.787l-25.084-24.451
	c-3.88-3.783-1.739-10.374,3.624-11.153l34.665-5.037c2.13-0.31,3.971-1.647,4.923-3.577l15.502-31.412
	C254.308,6.297,261.239,6.297,263.637,11.157z"/>
<g>
	<path id="SVGCleanerId_1_1_" style="fill:#F7CB4F;" d="M263.637,11.157l15.502,31.412c0.953,1.93,2.794,3.267,4.923,3.577
		l34.665,5.037c5.363,0.779,7.504,7.37,3.624,11.153l-25.084,24.451c-1.542,1.502-2.245,3.666-1.88,5.787l5.922,34.525
		c0.917,5.342-4.691,9.414-9.488,6.893l-31.005-16.301c-1.905-1.002-4.181-1.002-6.085,0l-31.005,16.301
		c-4.797,2.522-10.403-1.552-9.488-6.893l5.922-34.525c0.364-2.121-0.34-4.285-1.881-5.787l-25.084-24.451
		c-3.88-3.783-1.739-10.374,3.624-11.153l34.665-5.037c2.13-0.31,3.971-1.647,4.923-3.577l15.502-31.412
		C254.308,6.297,261.239,6.297,263.637,11.157z"/>
</g>
<path style="fill:#FBAB00;" d="M322.352,62.336c3.881-3.783,1.74-10.374-3.624-11.153l-6.032-0.876l-32.27,31.456
	c-1.983,1.933-2.889,4.72-2.421,7.45l7.073,41.235l6.744,3.546c4.797,2.522,10.403-1.552,9.488-6.893l-5.922-34.525
	c-0.364-2.121,0.34-4.285,1.88-5.787L322.352,62.336z"/>
<path id="SVGCleanerId_2" style="fill:#F7CB4F;" d="M421.374,66.247l15.502,31.412c0.953,1.93,2.794,3.267,4.923,3.577l34.665,5.037
	c5.363,0.779,7.504,7.37,3.624,11.153l-25.084,24.45c-1.542,1.502-2.245,3.667-1.88,5.788l5.922,34.525
	c0.917,5.342-4.691,9.414-9.488,6.893l-31.005-16.301c-1.905-1.002-4.181-1.002-6.086,0l-31.005,16.301
	c-4.797,2.522-10.403-1.552-9.488-6.893l5.922-34.525c0.364-2.121-0.34-4.285-1.88-5.788l-25.084-24.45
	c-3.881-3.783-1.74-10.374,3.624-11.153l34.665-5.037c2.129-0.31,3.97-1.647,4.923-3.577l15.502-31.412
	C412.045,61.387,418.975,61.387,421.374,66.247z"/>
<g>
	<path id="SVGCleanerId_2_1_" style="fill:#F7CB4F;" d="M421.374,66.247l15.502,31.412c0.953,1.93,2.794,3.267,4.923,3.577
		l34.665,5.037c5.363,0.779,7.504,7.37,3.624,11.153l-25.084,24.45c-1.542,1.502-2.245,3.667-1.88,5.788l5.922,34.525
		c0.917,5.342-4.691,9.414-9.488,6.893l-31.005-16.301c-1.905-1.002-4.181-1.002-6.086,0l-31.005,16.301
		c-4.797,2.522-10.403-1.552-9.488-6.893l5.922-34.525c0.364-2.121-0.34-4.285-1.88-5.788l-25.084-24.45
		c-3.881-3.783-1.74-10.374,3.624-11.153l34.665-5.037c2.129-0.31,3.97-1.647,4.923-3.577l15.502-31.412
		C412.045,61.387,418.975,61.387,421.374,66.247z"/>
</g>
<path style="fill:#FBAB00;" d="M480.088,117.426c3.881-3.783,1.74-10.374-3.624-11.153l-6.032-0.876l-32.27,31.456
	c-1.983,1.934-2.889,4.72-2.421,7.45l7.073,41.235l6.744,3.546c4.797,2.522,10.403-1.552,9.488-6.893l-5.922-34.525
	c-0.364-2.121,0.34-4.285,1.88-5.788L480.088,117.426z"/>
<circle cx="116.32" cy="462.288" r="11.961"/>
<path d="M462.599,381.562c2.42-3.865,3.825-8.429,3.825-13.316v-4.212c0-13.88-11.291-25.17-25.17-25.17h-78.257
	c-1.7,0-3.361,0.171-4.967,0.495l14.054-70.82c2.061-10.386,2.295-20.595,0.695-30.345c-2.659-16.209-11.221-35.529-36.907-35.529
	c-3.663,0-6.792,2.642-7.406,6.253l-4.93,29.01c-1.948,11.461-4.621,22.378-7.942,32.448c-9.197,27.887-20.802,42.181-41.39,50.987
	c-9.892,4.23-17.925,7.849-21.136,9.307h-30.988v-6.005c0-4.15-3.363-7.512-7.512-7.512h-50.853v-8.105
	c0-4.15-3.363-7.512-7.512-7.512H29.925c-4.15,0-7.512,3.363-7.512,7.512v44.576c0,4.15,3.363,7.512,7.512,7.512
	s7.512-3.362,7.512-7.512v-37.064h111.255v8.105v160.618v8.105H37.438V378.665c0-4.15-3.363-7.512-7.512-7.512
	s-7.512,3.363-7.512,7.512v122.237c0,4.15,3.363,7.512,7.512,7.512h126.279c4.15,0,7.512-3.363,7.512-7.512v-8.105h50.853
	c4.15,0,7.512-3.362,7.512-7.512v-3.521h29.96l16.143,13.069c13.552,10.972,30.618,17.014,48.056,17.014h45.767
	c0.053,0,0.104-0.007,0.156-0.008c0.966,0.103,1.944,0.16,2.937,0.16h53.663c15.041,0,27.277-12.236,27.277-27.276
	c0-4.514-1.109-8.772-3.059-12.527c13.23-1.871,23.44-13.263,23.44-27.001c0-5.556-1.674-10.728-4.537-15.043
	c8.111-4.184,13.672-12.642,13.672-22.38v-4.211C475.559,394.112,470.322,385.866,462.599,381.562z M450.389,417.92h-11.241h-74.046
	h-2.106c-5.594,0-10.146-4.551-10.146-10.146v-4.212c0-5.594,4.551-10.146,10.146-10.146h78.257h9.135
	c5.594,0,10.146,4.551,10.146,10.146v4.212C460.535,413.368,455.983,417.92,450.389,417.92z M441.254,353.89
	c5.594,0,10.146,4.551,10.146,10.146v4.212c0,5.594-4.551,10.146-10.146,10.146h-78.257c-5.594,0-10.146-4.551-10.146-10.146v-4.038
	c0.491-1.824,0.918-3.535,1.286-5.103c1.736-3.107,5.054-5.216,8.86-5.216L441.254,353.89L441.254,353.89z M277.64,483.156
	l-18.212-14.743c-1.337-1.083-3.006-1.674-4.727-1.674h-32.62v-21.542c0-4.15-3.363-7.512-7.512-7.512
	c-4.15,0-7.512,3.362-7.512,7.512v29.055v3.521h-43.341V332.178h43.341v6.005v81.973v0.001c0,4.15,3.363,7.512,7.512,7.512
	c4.15,0,7.512-3.363,7.512-7.512v-0.001v-74.46h32.62c1.084,0,2.155-0.234,3.139-0.687c0.095-0.043,9.631-4.424,22.272-9.831
	c24.751-10.584,39.164-27.995,49.752-60.096c3.556-10.783,6.41-22.435,8.484-34.635l3.756-22.1
	c8.815,2.056,13.675,9.044,15.847,22.282c1.307,7.967,1.104,16.374-0.606,24.987l-16.016,80.709c-0.03,0.15-0.056,0.303-0.076,0.456
	c-0.019,0.14-0.424,2.962-1.418,7.407c-1.002,2.347-1.653,4.876-1.897,7.522c-5.951,21.245-21.266,57.652-56.33,57.652
	c-4.149,0-7.512,3.362-7.512,7.512c0,4.15,3.364,7.512,7.512,7.512c23.252,0,42.635-11.998,56.54-34.819
	c-0.208,1.302-0.321,2.637-0.321,3.998v4.212c0,7.188,3.033,13.676,7.881,18.267c-4.869,4.929-7.881,11.696-7.881,19.155
	c0,7.773,3.273,14.791,8.507,19.763c-5.235,4.973-8.507,11.991-8.507,19.764c0,4.343,1.026,8.45,2.84,12.099H316.24
	C302.235,496.823,288.527,491.969,277.64,483.156z M418.766,496.975h-53.663c-6.755,0-12.251-5.496-12.251-12.251
	c0-6.755,5.496-12.252,12.251-12.252h53.663c6.755,0,12.252,5.496,12.252,12.252C431.017,491.479,425.521,496.975,418.766,496.975z
	 M439.149,457.447h-20.382h-53.663c-6.755,0-12.251-5.496-12.251-12.251c0-6.755,5.496-12.251,12.251-12.251h74.046
	c6.755,0,12.251,5.496,12.251,12.251C451.4,451.951,445.904,457.447,439.149,457.447z"/>
<path d="M54.641,146.898l-5.834,34.02c-0.911,5.311,1.231,10.576,5.588,13.744c2.464,1.79,5.345,2.698,8.247,2.698
	c2.233,0,4.477-0.539,6.552-1.629l30.552-16.062l30.552,16.062c4.769,2.507,10.438,2.097,14.796-1.069
	c4.359-3.166,6.501-8.433,5.59-13.744l-5.835-34.02l24.718-24.095c3.858-3.761,5.221-9.281,3.556-14.406
	c-1.666-5.123-6.012-8.786-11.343-9.561l-34.159-4.964l-15.276-30.953c-2.385-4.831-7.213-7.832-12.601-7.832
	c-5.387,0-10.215,3.001-12.6,7.832L71.87,93.874l-34.158,4.964c-5.332,0.774-9.678,4.437-11.344,9.561
	c-1.666,5.123-0.303,10.643,3.555,14.407L54.641,146.898z M74.536,108.669c4.577-0.664,8.533-3.537,10.58-7.687l14.629-29.644
	l14.628,29.642c2.046,4.15,6.002,7.025,10.58,7.689l32.712,4.754l-23.67,23.073c-3.313,3.229-4.824,7.878-4.042,12.437l5.588,32.58
	l-29.259-15.381c-4.095-2.154-8.984-2.153-13.078-0.001l-29.259,15.382l5.587-32.58c0.782-4.557-0.728-9.206-4.04-12.437
	l-23.672-23.073L74.536,108.669z"/>
<path d="M212.669,91.81l-5.835,34.019c-0.911,5.311,1.231,10.576,5.588,13.744c4.359,3.167,10.027,3.576,14.798,1.07l30.552-16.062
	l30.552,16.062c2.074,1.091,4.318,1.629,6.552,1.629c2.901,0,5.783-0.91,8.247-2.698c4.358-3.167,6.5-8.433,5.588-13.743
	l-5.835-34.02l24.72-24.095c3.857-3.762,5.22-9.282,3.554-14.406c-1.666-5.123-6.012-8.786-11.343-9.561l-34.159-4.964
	L270.373,7.832C267.989,3.001,263.161,0,257.773,0c-5.388,0-10.215,3.001-12.6,7.832l-15.276,30.953l-34.158,4.964
	c-5.332,0.773-9.678,4.437-11.344,9.561s-0.303,10.643,3.555,14.407L212.669,91.81z M232.563,53.58
	c4.577-0.664,8.533-3.537,10.581-7.687l14.629-29.643l14.629,29.644c2.048,4.149,6.004,7.022,10.58,7.686l32.713,4.754
	l-23.671,23.073c-3.311,3.227-4.822,7.875-4.042,12.437l5.588,32.58l-29.26-15.382c-4.093-2.152-8.983-2.152-13.077,0
	l-29.259,15.382l5.588-32.58c0.782-4.559-0.729-9.208-4.041-12.437L199.85,58.334L232.563,53.58z"/>
<path d="M488.887,108.4c-1.666-5.123-6.012-8.786-11.343-9.561l-34.159-4.964L428.11,62.922c-2.385-4.831-7.212-7.832-12.6-7.832
	c-5.388,0-10.215,3.001-12.6,7.832l-15.276,30.953l-34.158,4.964c-5.332,0.774-9.678,4.437-11.344,9.561
	c-1.665,5.124-0.304,10.644,3.556,14.406l24.718,24.095l-5.835,34.019c-0.911,5.311,1.23,10.576,5.588,13.744
	c4.359,3.167,10.026,3.577,14.798,1.07l30.552-16.062l30.552,16.062c2.074,1.091,4.318,1.629,6.552,1.629
	c2.902,0,5.783-0.91,8.247-2.698c4.358-3.167,6.5-8.433,5.588-13.743l-5.835-34.02l24.72-24.095
	C489.19,119.043,490.553,113.523,488.887,108.4z M449.759,136.498c-3.31,3.228-4.821,7.875-4.04,12.435l5.588,32.58l-29.26-15.382
	c-2.046-1.076-4.292-1.614-6.538-1.614c-2.246,0-4.491,0.538-6.539,1.614l-29.259,15.382l5.588-32.58
	c0.782-4.559-0.728-9.208-4.041-12.437l-23.671-23.073l32.711-4.754c4.577-0.664,8.533-3.537,10.581-7.687L415.51,71.34
	l14.629,29.644c2.048,4.149,6.004,7.022,10.58,7.686l32.713,4.754L449.759,136.498z"/>
<g>
</g>
<g>
</g>
<g>
</g>
<g>
</g>
<g>
</g>
<g>
</g>
<g>
</g>
<g>
</g>
<g>
</g>
<g>
</g>
<g>
</g>
<g>
</g>
<g>
</g>
<g>
</g>
<g>
</g>
</svg>
